<svg width="38" height="40" viewBox="0 0 38 40" fill="none" xmlns="http://www.w3.org/2000/svg">
<ellipse cx="19" cy="19.5" rx="19" ry="19.5" fill="#2CBEBE"/>
<path d="M26.9995 18.8577C26.847 18.1239 26.6039 17.4298 26.2889 16.7871C26.3047 15.4326 26.0875 13.9152 25.6401 12.6679C25.3351 11.8182 24.9251 11.0067 24.4216 10.2553L24.249 10L23.9843 10.1511C23.4088 10.4799 22.8953 10.8981 22.4551 11.3956C22.1069 11.7888 21.8149 12.2291 21.5775 12.7001C21.2999 12.6194 21.0165 12.5563 20.7288 12.5123C20.3907 12.4609 20.0512 12.4345 19.7132 12.4345H19.6815C18.4731 12.4345 17.282 12.7588 16.2074 13.3488C16.0448 13.0289 15.7715 12.6326 15.3241 12.3083C14.9874 12.0647 14.5933 11.896 14.1847 11.8182L13.9272 11.7698L13.8222 12.0148C13.533 12.6899 13.3949 13.3987 13.4136 14.1221C13.4237 14.5183 13.5359 15.1185 13.6553 15.5573C12.9418 16.4921 12.3995 17.6059 12.1074 18.8562C17.0691 18.8577 22.0336 18.8577 26.9995 18.8577ZM22.9485 11.8475C23.2707 11.4821 23.639 11.1652 24.0447 10.901C24.4403 11.5306 24.7654 12.2012 25.0157 12.8997C25.3308 13.7773 25.5221 14.6915 25.5926 15.6248C24.7208 14.398 23.5469 13.453 22.2134 12.9203C22.4162 12.5343 22.6608 12.1733 22.9485 11.8475ZM19.7117 13.111C20.0181 13.111 20.3289 13.1345 20.631 13.18C23.1614 13.5689 25.2919 15.5353 26.1364 18.1812H20.1864C20.208 18.1092 20.2238 18.0344 20.2238 17.9552C20.2238 17.5296 19.8858 17.1833 19.4686 17.1833C19.0514 17.1833 18.7119 17.5281 18.7119 17.9552C18.7119 18.0344 18.7263 18.1092 18.7493 18.1812H12.995C14.0394 15.1993 16.7468 13.1125 19.7117 13.111ZM14.0739 14.106C14.061 13.5748 14.1444 13.0538 14.3243 12.549C14.5444 12.6194 14.7544 12.7251 14.94 12.8601C15.2996 13.1198 15.514 13.4427 15.6362 13.6936C15.1112 14.0429 14.6206 14.4582 14.1775 14.9336C14.1171 14.6622 14.0811 14.3848 14.0739 14.106Z" fill="white"/>
<path d="M12.4071 25.1076C12.7826 26.7908 13.2113 27.4717 13.85 27.796C14.1521 27.9487 14.4585 28 14.7304 28C15.2267 28 15.608 27.8313 15.6482 27.8137C16.5099 27.4174 17.0552 26.4328 16.9962 25.3278C17.3127 25.4305 18.2247 25.7064 19.4259 25.7064C20.3883 25.7064 21.5377 25.5303 22.7174 24.9477C26.1081 23.2748 26.8547 19.6736 26.9338 19.2612C21.9923 19.2612 17.0494 19.2612 12.1079 19.2612C11.8389 21.844 12.1237 23.8368 12.4071 25.1076ZM12.7121 19.9348H24.5041C24.4307 20.0566 24.3861 20.196 24.3861 20.3545C24.3832 20.9195 24.9385 21.3817 25.4248 21.4067C24.8493 22.4471 23.9171 23.602 22.4297 24.3372C21.5003 24.7951 20.4905 25.0284 19.4274 25.0284C18.4635 25.0284 17.6838 24.8406 17.199 24.6821L16.2826 24.3842L16.3359 25.363C16.379 26.176 15.9949 26.9126 15.3778 27.1958C15.3749 27.1973 15.0915 27.3235 14.7319 27.3235C14.5175 27.3235 14.3204 27.278 14.1464 27.19C13.7982 27.0139 13.4256 26.6221 13.0545 24.958C12.6992 23.3687 12.5855 21.6826 12.7121 19.9348Z" fill="white"/>
</svg>
