<svg width="44" height="45" viewBox="0 0 44 45" fill="none" xmlns="http://www.w3.org/2000/svg">
<path d="M37.125 37.8113V20.5378C37.1219 20.3476 37.0808 20.1598 37.0041 19.9856C36.9273 19.8115 36.8165 19.6545 36.6781 19.5238L22.9281 7.02847C22.6746 6.79657 22.3435 6.66797 22 6.66797C21.6565 6.66797 21.3254 6.79657 21.0719 7.02847L7.32187 19.5238C7.18351 19.6545 7.07269 19.8115 6.99595 19.9856C6.9192 20.1598 6.87808 20.3476 6.875 20.5378V37.8113" stroke="#4A60A1" stroke-width="2.75" stroke-linecap="round" stroke-linejoin="round"/>
<path d="M2.75 37.8105H41.25" stroke="#4A60A1" stroke-width="2.75" stroke-linecap="round" stroke-linejoin="round"/>
<path d="M26.125 37.8105V28.1855C26.125 27.8209 25.9801 27.4711 25.7223 27.2133C25.4644 26.9554 25.1147 26.8105 24.75 26.8105H19.25C18.8853 26.8105 18.5356 26.9554 18.2777 27.2133C18.0199 27.4711 17.875 27.8209 17.875 28.1855V37.8105" stroke="#4A60A1" stroke-width="2.75" stroke-linecap="round" stroke-linejoin="round"/>
</svg>
