<svg width="39" height="42" viewBox="0 0 39 42" fill="none" xmlns="http://www.w3.org/2000/svg">
<path d="M29.1367 2.27227C32.5697 3.16456 35.1457 6.08601 35.7487 9.66866C35.9388 10.7977 35.9715 12.0453 35.847 13.4116C35.4324 17.9793 33.4103 21.8031 29.7676 24.5255C29.6398 24.6211 29.5196 24.6993 29.4071 24.76C29.2651 24.8364 29.2235 24.7982 29.2825 24.6453C30.6284 21.1785 31.5564 17.6014 32.0666 13.9142C32.7778 8.77131 30.3673 4.44311 24.8139 4.68938C24.3464 4.70962 23.598 4.84512 22.569 5.09589C20.6567 5.56143 18.7607 5.97974 16.7993 5.51251C16.7698 5.50577 16.7534 5.49171 16.7501 5.47034C16.7472 5.45449 16.7503 5.43809 16.7588 5.42456C16.7674 5.41104 16.7807 5.40145 16.796 5.39781C18.0741 5.08858 19.3168 4.66689 20.5239 4.13275C23.2212 2.93685 26.2658 1.52673 29.1367 2.27227Z" fill="#5D4FFF"/>
<path d="M14.3748 5.3926C17.0163 6.54634 18.6222 7.24465 21.1801 7.05742C21.2467 7.05292 21.2648 7.08103 21.2342 7.14176C21.2167 7.17437 21.1856 7.20079 21.1408 7.22104C18.7238 8.30055 16.0331 7.5685 13.6243 6.50417C12.0004 5.78561 10.4027 5.93742 8.85905 6.73356C6.92052 7.73043 5.32775 9.63814 5.34577 11.981C5.36434 14.3346 5.91275 16.6567 6.99098 18.9473C8.92787 23.0652 11.2832 26.9161 14.0569 30.4998C14.0684 30.5145 14.0762 30.5319 14.0796 30.5505C14.0829 30.5691 14.0816 30.5882 14.0759 30.6061C14.0702 30.6241 14.0603 30.6403 14.0469 30.6532C14.0336 30.6662 14.0173 30.6755 13.9995 30.6803C12.575 31.0784 11.1226 31.2471 9.64233 31.1863C9.59261 31.1843 9.5439 31.1708 9.49969 31.1469C9.45549 31.123 9.4169 31.0892 9.3867 31.048C5.16552 25.2945 1.17703 18.2051 1.76367 10.8391C1.97014 8.25501 2.87304 5.90537 5.09014 4.52393C8.60178 2.3379 11.1122 3.96561 14.3748 5.3926Z" fill="#5D4FFF"/>
<path d="M11.3591 32.625C11.8879 32.6092 12.4155 32.5637 12.9421 32.4883C15.73 32.0858 17.4249 31.7861 18.0268 31.5893C21.2828 30.5233 24.352 29.4775 27.3327 27.7148C27.7042 27.4956 28.0767 27.2785 28.4503 27.0638C31.6686 25.2185 34.5297 21.99 35.7522 18.3888C35.7806 18.3056 35.8477 18.2533 35.9537 18.232C35.9638 18.2302 35.9741 18.2308 35.984 18.2336C35.9938 18.2365 36.0029 18.2416 36.0106 18.2486C36.0183 18.2555 36.0244 18.2641 36.0285 18.2738C36.0325 18.2835 36.0344 18.294 36.034 18.3045C36.0132 18.9061 35.8685 19.6072 35.5998 20.4079C31.803 31.704 19.5491 35.4486 9.13712 33.4228C8.48384 33.2946 7.84531 33.1068 7.22153 32.8594C7.21167 32.8555 7.20286 32.8492 7.19581 32.8411C7.18877 32.833 7.18368 32.8233 7.18096 32.8127C7.17825 32.8022 7.17798 32.7912 7.18019 32.7805C7.1824 32.7699 7.18702 32.7599 7.19367 32.7515C7.22317 32.7132 7.26632 32.6936 7.32312 32.6924C8.66791 32.6857 10.0132 32.6632 11.3591 32.625Z" fill="#5D4FFF"/>
<path d="M15.7086 35.8616C16.141 35.8487 16.5725 35.8116 17.0031 35.7501C19.2829 35.4218 20.6689 35.1773 21.1611 35.0168C23.8238 34.1473 26.3336 33.2942 28.7711 31.8565C29.0749 31.6776 29.3795 31.5006 29.685 31.3254C32.3168 29.8202 34.6565 27.1868 35.6562 24.2494C35.6794 24.1815 35.7343 24.1388 35.821 24.1214C35.8292 24.12 35.8377 24.1205 35.8457 24.1228C35.8538 24.1251 35.8612 24.1293 35.8675 24.135C35.8738 24.1406 35.8788 24.1477 35.8821 24.1556C35.8854 24.1634 35.887 24.172 35.8866 24.1806C35.8697 24.6713 35.7513 25.2432 35.5315 25.8963C32.4267 35.1104 22.406 38.1648 13.8915 36.5124C13.3573 36.4078 12.8352 36.2546 12.3251 36.0528C12.317 36.0496 12.3098 36.0445 12.304 36.0379C12.2983 36.0312 12.2941 36.0233 12.2919 36.0147C12.2897 36.0062 12.2894 35.9972 12.2913 35.9885C12.2931 35.9798 12.2968 35.9717 12.3023 35.9648C12.3264 35.9336 12.3617 35.9175 12.4081 35.9166C13.5078 35.9111 14.608 35.8928 15.7086 35.8616Z" fill="#5D4FFF"/>
<path d="M19.8649 38.8012C20.2012 38.7913 20.5368 38.7624 20.8717 38.7147C22.6449 38.4598 23.723 38.27 24.1058 38.1454C26.1767 37.4704 28.1288 36.8082 30.0247 35.692C30.2609 35.5531 30.4979 35.4157 30.7355 35.2797C32.7824 34.1112 34.6022 32.0669 35.3797 29.7865C35.3978 29.7338 35.4405 29.7007 35.5079 29.6872C35.5143 29.686 35.5209 29.6864 35.5272 29.6882C35.5334 29.69 35.5392 29.6933 35.5441 29.6977C35.549 29.7021 35.5529 29.7075 35.5554 29.7137C35.558 29.7198 35.5592 29.7264 35.559 29.7331C35.5458 30.114 35.4537 30.558 35.2828 31.065C32.8679 38.218 25.074 40.5892 18.4517 39.3064C18.0362 39.2253 17.63 39.1063 17.2333 38.9497C17.227 38.9472 17.2214 38.9432 17.2169 38.9381C17.2124 38.9329 17.2092 38.9268 17.2075 38.9201C17.2058 38.9135 17.2056 38.9065 17.207 38.8997C17.2084 38.893 17.2113 38.8867 17.2156 38.8813C17.2343 38.8571 17.2618 38.8447 17.2979 38.844C18.1532 38.8397 19.0089 38.8254 19.8649 38.8012Z" fill="#5D4FFF"/>
</svg>
