<svg width="20" height="21" viewBox="0 0 20 21" fill="none" xmlns="http://www.w3.org/2000/svg">
<g clip-path="url(#clip0_10938_12140)">
<path d="M6.66721 10.6855C6.66721 8.84467 8.15913 7.35194 10 7.35194C11.8409 7.35194 13.3336 8.84467 13.3336 10.6855C13.3336 12.5264 11.8409 14.0191 10 14.0191C8.15913 14.0191 6.66721 12.5264 6.66721 10.6855ZM4.86511 10.6855C4.86511 13.5216 7.16397 15.8204 10 15.8204C12.836 15.8204 15.1349 13.5216 15.1349 10.6855C15.1349 7.84952 12.836 5.55065 10 5.55065C7.16397 5.55065 4.86511 7.84952 4.86511 10.6855ZM14.1381 5.3471C14.1381 6.00946 14.6753 6.54742 15.3385 6.54742C16.0008 6.54742 16.5388 6.00946 16.5388 5.3471C16.5388 4.68474 16.0016 4.14758 15.3385 4.14758C14.6753 4.14758 14.1381 4.68474 14.1381 5.3471ZM5.95961 18.8253C4.98465 18.7809 4.45477 18.6185 4.10259 18.4812C3.6357 18.2994 3.30291 18.083 2.95234 17.7332C2.60259 17.3834 2.3853 17.0507 2.20436 16.5838C2.06704 16.2316 1.90469 15.7017 1.86026 14.7267C1.81179 13.6726 1.8021 13.356 1.8021 10.6855C1.8021 8.01511 1.8126 7.69928 1.86026 6.64435C1.90469 5.66939 2.06785 5.14031 2.20436 4.78732C2.38611 4.32044 2.60259 3.98765 2.95234 3.63708C3.3021 3.28732 3.6349 3.07004 4.10259 2.8891C4.45477 2.75178 4.98465 2.58942 5.95961 2.545C7.01373 2.49653 7.33037 2.48684 10 2.48684C12.6704 2.48684 12.9863 2.49734 14.0412 2.545C15.0162 2.58942 15.5452 2.75259 15.8982 2.8891C16.3651 3.07004 16.6979 3.28732 17.0485 3.63708C17.3982 3.98684 17.6147 4.32044 17.7964 4.78732C17.9338 5.1395 18.0961 5.66939 18.1406 6.64435C18.189 7.69928 18.1987 8.01511 18.1987 10.6855C18.1987 13.3552 18.189 13.6718 18.1406 14.7267C18.0961 15.7017 17.933 16.2316 17.7964 16.5838C17.6147 17.0507 17.3982 17.3834 17.0485 17.7332C16.6987 18.083 16.3651 18.2994 15.8982 18.4812C15.546 18.6185 15.0162 18.7809 14.0412 18.8253C12.9871 18.8738 12.6704 18.8834 10 18.8834C7.33037 18.8834 7.01373 18.8738 5.95961 18.8253ZM5.87722 0.746128C4.8126 0.794594 4.08562 0.963414 3.44992 1.21059C2.79241 1.46584 2.23506 1.80833 1.67851 2.36406C1.12278 2.9198 0.780291 3.47715 0.52504 4.13547C0.277868 4.77117 0.109047 5.49815 0.0605816 6.56277C0.0113086 7.629 0 7.96988 0 10.6855C0 13.4012 0.0113086 13.7421 0.0605816 14.8083C0.109047 15.8729 0.277868 16.5999 0.52504 17.2356C0.780291 17.8931 1.12197 18.4513 1.67851 19.007C2.23425 19.5628 2.7916 19.9044 3.44992 20.1605C4.08643 20.4077 4.8126 20.5765 5.87722 20.625C6.94427 20.6734 7.28433 20.6855 10 20.6855C12.7165 20.6855 13.0565 20.6742 14.1228 20.625C15.1874 20.5765 15.9144 20.4077 16.5501 20.1605C17.2076 19.9044 17.7649 19.5628 18.3215 19.007C18.8772 18.4513 19.2189 17.8931 19.475 17.2356C19.7221 16.5999 19.8918 15.8729 19.9394 14.8083C19.9879 13.7413 19.9992 13.4012 19.9992 10.6855C19.9992 7.96988 19.9879 7.629 19.9394 6.56277C19.891 5.49815 19.7221 4.77117 19.475 4.13547C19.2189 3.47795 18.8772 2.9206 18.3215 2.36406C17.7658 1.80833 17.2076 1.46584 16.5509 1.21059C15.9144 0.963414 15.1874 0.793786 14.1236 0.746128C13.0574 0.697663 12.7165 0.685547 10.0008 0.685547C7.28433 0.685547 6.94427 0.696855 5.87722 0.746128Z" fill="#4A60A1"/>
</g>
<defs>
<clipPath id="clip0_10938_12140">
<rect width="20" height="20" fill="white" transform="translate(0 0.685547)"/>
</clipPath>
</defs>
</svg>
