<svg width="20" height="21" viewBox="0 0 20 21" fill="none" xmlns="http://www.w3.org/2000/svg">
<g clip-path="url(#clip0_10938_12136)">
<path d="M0 10.6855C0 8.87221 0.44668 7.19889 1.34 5.66555C2.23334 4.13221 3.44668 2.91889 4.98 2.02555C6.51334 1.13221 8.18668 0.685547 10 0.685547C11.8133 0.685547 13.4867 1.13221 15.02 2.02555C16.5533 2.91889 17.7667 4.13221 18.66 5.66555C19.5533 7.19889 20 8.87221 20 10.6855C20 12.4989 19.5533 14.1722 18.66 15.7055C17.7667 17.2389 16.5533 18.4522 15.02 19.3455C13.4867 20.2389 11.8133 20.6855 10 20.6855C8.18668 20.6855 6.51334 20.2389 4.98 19.3455C3.44668 18.4522 2.23334 17.2389 1.34 15.7055C0.44668 14.1722 0 12.4989 0 10.6855ZM1.66 10.6855C1.66 12.7655 2.36 14.5989 3.76 16.1855C4.4 14.9322 5.41334 13.7389 6.8 12.6055C8.18668 11.4722 9.54 10.7589 10.86 10.4655C10.66 9.99889 10.4667 9.57889 10.28 9.20555C7.98668 9.93889 5.50668 10.3055 2.84 10.3055C2.32 10.3055 1.93334 10.2989 1.68 10.2855C1.68 10.3389 1.67668 10.4055 1.67 10.4855C1.66334 10.5655 1.66 10.6322 1.66 10.6855ZM1.92 8.62555C2.21334 8.65221 2.64668 8.66555 3.22 8.66555C5.44668 8.66555 7.56 8.36555 9.56 7.76555C8.54668 5.96555 7.43334 4.46555 6.22 3.26555C5.16668 3.79889 4.26334 4.53889 3.51 5.48555C2.75668 6.43221 2.22668 7.47889 1.92 8.62555ZM4.9 17.2655C6.40668 18.4389 8.10668 19.0255 10 19.0255C10.9867 19.0255 11.9667 18.8389 12.94 18.4655C12.6733 16.1855 12.1533 13.9789 11.38 11.8455C10.1533 12.1122 8.91668 12.7855 7.67 13.8655C6.42334 14.9455 5.5 16.0789 4.9 17.2655ZM7.96 2.62555C9.13334 3.83889 10.22 5.35221 11.22 7.16555C13.0333 6.40555 14.4 5.43889 15.32 4.26555C13.7733 2.98555 12 2.34555 10 2.34555C9.32 2.34555 8.64 2.43889 7.96 2.62555ZM11.94 8.58555C12.14 9.01221 12.3667 9.55221 12.62 10.2055C13.6067 10.1122 14.68 10.0655 15.84 10.0655C16.6667 10.0655 17.4867 10.0855 18.3 10.1255C18.1933 8.31221 17.54 6.69889 16.34 5.28555C15.4733 6.57889 14.0067 7.67889 11.94 8.58555ZM13.12 11.6055C13.8 13.5789 14.26 15.6055 14.5 17.6855C15.5533 17.0055 16.4133 16.1322 17.08 15.0655C17.7467 13.9989 18.1467 12.8455 18.28 11.6055C17.3067 11.5389 16.42 11.5055 15.62 11.5055C14.8867 11.5055 14.0533 11.5389 13.12 11.6055Z" fill="#4A60A1"/>
</g>
<defs>
<clipPath id="clip0_10938_12136">
<rect width="20" height="20" fill="white" transform="translate(0 0.685547)"/>
</clipPath>
</defs>
</svg>
