<svg width="20" height="21" viewBox="0 0 20 21" fill="none" xmlns="http://www.w3.org/2000/svg">
<g clip-path="url(#clip0_10938_12138)">
<path d="M0 3.00878C0 2.33536 0.225232 1.77981 0.675676 1.34211C1.12612 0.904395 1.71172 0.685547 2.43243 0.685547C3.14029 0.685547 3.71299 0.901021 4.15058 1.33201C4.60102 1.77645 4.82625 2.35556 4.82625 3.06938C4.82625 3.71584 4.60747 4.25455 4.16988 4.68554C3.71944 5.12998 3.12741 5.35221 2.39382 5.35221H2.37452C1.66666 5.35221 1.09396 5.12998 0.656371 4.68554C0.218784 4.2411 0 3.68217 0 3.00878ZM0.250965 20.6855V7.19059H4.53668V20.6855H0.250965ZM6.9112 20.6855H11.1969V13.1502C11.1969 12.6788 11.2484 12.3151 11.3514 12.0593C11.5315 11.6013 11.805 11.2141 12.1718 10.8976C12.5386 10.5811 12.9987 10.4229 13.5521 10.4229C14.9936 10.4229 15.7143 11.4397 15.7143 13.4734V20.6855H20V12.9482C20 10.9549 19.5496 9.44311 18.6486 8.41281C17.7477 7.3825 16.5573 6.86735 15.0772 6.86735C13.417 6.86735 12.1236 7.61483 11.1969 9.10977V9.15018H11.1776L11.1969 9.10977V7.19059H6.9112C6.93693 7.62155 6.94981 8.96161 6.94981 11.2108C6.94981 13.4599 6.93693 16.6182 6.9112 20.6855Z" fill="#4A60A1"/>
</g>
<defs>
<clipPath id="clip0_10938_12138">
<rect width="20" height="20" fill="white" transform="translate(0 0.685547)"/>
</clipPath>
</defs>
</svg>
