<svg width="20" height="21" viewBox="0 0 20 21" fill="none" xmlns="http://www.w3.org/2000/svg">
<path d="M8.07007 9.60695C8.07007 9.60695 9.96239 9.46829 9.96239 7.27799C9.96239 5.08754 8.41423 4.01855 6.45315 4.01855H0V16.2591H6.45315C6.45315 16.2591 10.3926 16.3819 10.3926 12.6463C10.3926 12.6463 10.5643 9.60695 8.07007 9.60695ZM5.98866 6.19418H6.45315C6.45315 6.19418 7.33033 6.19418 7.33033 7.46775C7.33033 8.74117 6.81445 8.9258 6.22932 8.9258H2.84334V6.19418H5.98866ZM6.2708 14.0836H2.84334V10.8124H6.45315C6.45315 10.8124 7.76054 10.7955 7.76054 12.4935C7.76054 13.9252 6.78405 14.0728 6.2708 14.0836ZM15.6465 7.13291C10.8774 7.13291 10.8816 11.8361 10.8816 11.8361C10.8816 11.8361 10.5544 16.5152 15.6465 16.5152C15.6465 16.5152 19.8898 16.7544 19.8898 13.2602H17.7075C17.7075 13.2602 17.7803 14.5761 15.7192 14.5761C15.7192 14.5761 13.5366 14.7205 13.5366 12.4465H19.9626C19.9626 12.4465 20.6657 7.13291 15.6465 7.13291ZM13.5126 10.8124C13.5126 10.8124 13.7791 8.92576 15.6949 8.92576C17.6104 8.92576 17.5864 10.8124 17.5864 10.8124H13.5126ZM18.0948 6.24701H12.9783V4.73968H18.0948V6.24701Z" fill="#4A60A1"/>
</svg>
